<svg id="Layer_1" data-name="Layer 1" xmlns="http://www.w3.org/2000/svg" viewBox="0 0 94.56 122.88"><defs><style>.cls-1{fill-rule:evenodd;}</style></defs><title>pound-money-bag</title><path class="cls-1" d="M38.14,21.15c-1.9-5.6-3.6-11.26-5-17,5.38-5.9,26.16-5.12,32.13-.1L59.69,17.21c3-3.91,4-5.52,5.75-7.69a17.45,17.45,0,0,1,2.11,1.63c1.57,1.43,3,3,3.26,5.2a5.38,5.38,0,0,1-1.49,4.34L56.63,35.48a27,27,0,0,1-4.78-1.22c.72-1.69,1.59-3.55,2.31-5.25l-4.62,5a17.34,17.34,0,0,0-12.3,1.5L24.37,20.05a4.3,4.3,0,0,1-1.11-2.76c0-3.73,5.58-7,8.5-8.18l6.38,12Zm16.5,27.91L52.12,37.57c10.76,2,28,23.89,33.58,33.84a94.1,94.1,0,0,1,7.38,16.93c4.06,15.14.15,29.31-16.28,32.6-10.29,2.07-29.48,2.22-40.3,1.66C24.87,122,6.86,122,2.16,110.07c-7.59-19.28,6.31-42.25,19-56.31a68.26,68.26,0,0,1,5.18-5.17c4.62-4.06,9.59-8.87,15.53-10.87L36.12,48.39l8.33-11h4.39l5.8,11.71ZM45.76,82.42h7.86v6.2H46.67a13.38,13.38,0,0,1-.8,4,10.15,10.15,0,0,1-1.82,2.78A12.1,12.1,0,0,1,46.54,95a15.55,15.55,0,0,1,3.45.51,22.05,22.05,0,0,0,4.64.66A11.23,11.23,0,0,0,57.1,96a14.84,14.84,0,0,0,2.75-1l3.53,7.75a23.29,23.29,0,0,1-4.51,1.77,17.26,17.26,0,0,1-4.16.48,21.4,21.4,0,0,1-5.57-.85Q45,103,44,102.81a11.8,11.8,0,0,0-2.12-.18A15,15,0,0,0,34.54,105l-3.36-7.37q5.46-3.9,5.47-7.8,0-.21-.06-1.17H31.18v-6.2h3.87c-.65-2.27-1-3.6-1.11-4a10.67,10.67,0,0,1-.16-2,10.18,10.18,0,0,1,1.73-5.81A9.79,9.79,0,0,1,40,66.88a20.13,20.13,0,0,1,7.57-1.17,20.39,20.39,0,0,1,7.06,1A10,10,0,0,1,59.05,70a13.33,13.33,0,0,1,2.47,5.6l-9.91,1.55a8.14,8.14,0,0,0-1.72-3.66,3.31,3.31,0,0,0-4.62.08,3.88,3.88,0,0,0-.93,2.78,9.21,9.21,0,0,0,.18,1.85c.12.6.53,2,1.24,4.2Z" fill="#B502D6" fill-opacity="1"/></svg>